<?xml version="1.0" encoding="utf-8"?>
<!-- Generator: Adobe Illustrator 25.4.1, SVG Export Plug-In . SVG Version: 6.00 Build 0)  -->
<svg version="1.1" id="Layer_1" xmlns="http://www.w3.org/2000/svg" xmlns:xlink="http://www.w3.org/1999/xlink" x="0px" y="0px"
	 viewBox="0 0 1280 896" style="enable-background:new 0 0 1280 896;" xml:space="preserve">
<style type="text/css">
	.st0{fill:#FFFFFF;}
	.st1{fill:#1D2D50;}
	.st2{fill:#E96A20;}
</style>
<rect class="st0" width="1280" height="896"/>
<g>
	<path class="st1" d="M297.37,248.96c14.35-5.32,29.66-8.23,44.98-8.09c64.98-0.1,129.95-0.01,194.91-0.06
		c-9.09,34-18.7,67.89-27.23,102.05c-24.55,0.06-49.1,0.01-73.65,0.11c1.81-6.47,3.46-13.46,1.4-20.08
		c-1.76-5.48-7.76-8.27-13.19-8.23c-28.21-0.11-56.43-0.01-84.64-0.05c-9.94-0.39-19.4,5.48-24.67,13.71
		c-4.05,5.91-4.92,13.19-6.87,19.92c-1.56,5.66-2.73,12.33,0.88,17.49c3.32,4.7,9.46,5.97,14.89,5.89
		c31.46,0.04,62.92-0.04,94.39,0.06c16.38,0.35,33.54,3.95,46.6,14.4c11.29,8.96,17.92,22.81,19.61,36.97
		c1.61,12.2-0.21,24.57-3.41,36.37c-4.19,15.64-8.09,31.37-12.43,46.97c-5.68,20.17-18.15,38.21-34.5,51.22
		c-19.19,15-43.75,21.99-67.9,22.13c-67.42,0.1-134.83,0-202.25,0.04c9.25-35.41,18.64-70.82,27.87-106.24
		c24.8,0.06,49.6-0.02,74.41-0.05c-1.9,7.05-4.44,14.59-2.48,21.89c1.68,6.1,8.32,9,14.2,8.9c28.21,0.15,56.42,0.06,84.64,0.06
		c9.71,0.04,19.48-4.54,25.08-12.59c4.22-5.64,5.27-12.79,7.2-19.39c1.55-5.68,3.17-12.05,0.39-17.63c-2.47-5.5-8.9-7.75-14.54-7.78
		c-32.66-0.11-65.32,0.07-97.96-0.1c-16.44-0.52-33.65-5.02-46.09-16.26c-12.68-11.62-18.42-29.26-18.34-46.15
		c-0.13-14.67,4.91-28.63,8.4-42.7c4.13-14.77,6.59-30.28,14.31-43.78C253.08,275.37,273.67,257.89,297.37,248.96z"/>
	<path class="st1" d="M558.53,240.76c30.7,0.11,61.4,0.04,92.11,0.04c7.2,50.75,15.93,101.29,22.94,152.08
		c25.1-36.56,49.7-73.48,74.75-110.09c9.4-13.98,19.09-27.78,28.26-41.92c33.82-0.05,67.64,0.04,101.46-0.02
		c-11.35,40.72-21.91,81.67-33.31,122.38c-22.18,2.42-40.29,24.03-37.54,46.41c-12.43,10.88-19.75,27.2-19.91,43.68
		c-0.34,6.02,0.36,12.03,0.46,18.05c-1.62,9.66-5.72,19.25-4.17,29.19c0.57,4.92,4.52,8.26,7.18,12.1
		c3.82,5.39,7.37,10.99,11.91,15.85c-4.96,16.97-9.33,34.11-13.78,51.22c-28.63,0.08-57.27,0.02-85.9,0.04
		c15.23-58.1,31.17-116.02,46.51-174.09c-31.12,45.11-62.45,90.07-93.31,135.36c-11.89,0.01-23.79,0.05-35.68,0.05
		c-7.61-44.33-15.17-88.68-22.92-132.99c-15.46,57.22-30.98,114.43-46.28,171.69c-28.13,0.02-56.25-0.1-84.38,0.05
		C496.9,466.66,527.75,353.72,558.53,240.76z"/>
	<path class="st1" d="M680.67,600.49c4.98-0.65,10.06-0.06,15.07-0.45c-8.07,8.85-16.17,17.66-24.05,26.68
		c-2.05,2.38-4.75,4.47-5.56,7.66c-1.52,5.11-2.97,10.25-4.39,15.39c-4.29,0.06-8.56,0.07-12.82,0.13c1.79-5.63,3.2-11.37,4.63-17.1
		c0.41-1.41-0.34-2.8-0.65-4.12c-3.2-9.45-6.01-19.02-9.25-28.45c4.88,0.08,9.78,0.05,14.67,0.05c1.74,6.59,3.55,13.15,5.52,19.69
		C669.67,613.66,674.71,606.66,680.67,600.49z"/>
	<path class="st1" d="M570.24,606.18c3.43-3.94,8.71-5.92,13.88-5.9c10.54-0.07,21.08,0.08,31.62,0.06
		c-1.26,3.63-2.32,7.32-3.3,11.05c-9.45,0.15-18.92-0.23-28.34,0.24c-4.92,0.06-5.83,5.56-6.83,9.28
		c-1.27,5.81-3.73,11.51-3.37,17.55c6.26,1.08,12.64,0.5,18.98,0.68c0.79-2.78,1.57-5.56,2.39-8.33c-2.92,0.04-5.85,0.07-8.76,0.12
		c0.76-3.54,1.6-7.06,2.42-10.58c7.26-0.24,14.52-0.41,21.78-0.05c-2.7,9.8-5.49,19.57-8.11,29.4c-9.78,0.3-19.56,0.29-29.34,0.45
		c-3.44-0.07-7.19,0.23-10.21-1.74c-2.84-1.89-4.12-5.56-3.49-8.85c1.05-6.56,3.35-12.84,4.94-19.28
		C565.85,615.4,566.81,610.12,570.24,606.18z"/>
	<path class="st1" d="M722.58,600.37c5.15,0.06,10.3,0.05,15.46-0.05c1.84,10.01,3.96,19.96,5.74,29.98
		c7.28-9.95,14.66-19.82,21.82-29.87c5.31-0.16,10.61-0.05,15.93-0.11c-4.93,16.37-9.16,32.94-13.68,49.41
		c-4.28,0.1-8.55,0.1-12.8,0.12c2.78-9.65,5.77-19.25,8.07-29.02c-5.79,8.09-11.46,16.31-18.18,23.65
		c-3.22,1.17-6.96,0.35-10.36,0.59c-1.58-8.1-3.38-16.14-5.11-24.2c-2.43,9.69-5.63,19.18-7.76,28.96
		c-4.21,0.04-8.41,0.06-12.61,0.11C713.66,633.44,718.14,616.92,722.58,600.37z"/>
	<g>
		<g>
			<path class="st2" d="M909.07,266.98c14.88-10.5,36.16-9.72,51.21,0.05c12.32,8.29,15.43,25.13,12.03,38.79
				c-2.49,7,3.28,13.4,3.24,20.34c-0.8,1.79-3.3,1.78-4.83,2.68c-1.76,8.45-3.69,16.87-6.38,25.07c-0.75,2.95-3.86,4.5-6.72,4.23
				c-5.25-0.33-10.2-2.31-15.42-2.76c0.04,2.93-0.83,6.14,0.51,8.88c5.98,3.72,12.91,5.67,19.56,7.94
				c14.26-14.15,38.73-16.14,54.77-3.88c6.32-7.69,16.47-11.78,26.36-10.85c6.33,0.42,12.04,3.47,17.66,6.16
				c-4.46-8.47-4.25-18.4-1.97-27.47c3-12.2-2.32-24.15-6.99-35.16c-0.95-1.79-2.01-4.8-4.54-4.28c-3.36,2.12-5.85,5.98-10.12,6.35
				c-4.88,0.24-9.78-0.34-14.66-0.11c-4.41,0.4-8.32-2.27-11.18-5.34c-0.71-4.27-0.46-8.69,0.07-12.97
				c1.64-4.58,5.02-8.42,8.56-11.69c2.31-2.2,5.66-1.97,8.61-1.73c9.4,0.89,19.04,0.4,28.21,2.99c4.46,1.02,6.87,5.27,9.29,8.74
				c6.99,10.96,13.89,22.06,22.64,31.74c8.01,8.85,13.95,19.54,17.09,31.06c1.86,6.14,2.59,12.56,4.35,18.73
				c1.37,4.82,6.21,8.63,5.16,14.05c-1.06,8.47-8.55,14.21-15.88,17.39c-5.96,2.48-11.63,5.75-16.1,10.47
				c-9.54,9.92-21.71,17.71-35.33,20.41c-10.85,2.53-22,0.7-32.91-0.36c-2.05,11.29-5.21,22.47-11.16,32.38
				c-4.73,8.69-11.35,16.09-17.15,24.04c-1.91,2.77-4.3,5.58-4.38,9.14c-1.23,17.24,4.58,33.93,4.59,51.14
				c-43.56,50.78-115.26,60.71-157.97,106.8c3.23-7.02,3.3-7.48,6.11-15.33c5.73-11.94,8.44-25.03,13.75-37.14
				c4.68-10.49,10.41-20.62,18.11-29.2c1.41-1.4-1.17-2.53-1.97-3.36c-11.47-8.61-24.95-14.03-36.42-22.65
				c-11.31-7.92-21.1-17.95-28.5-29.61c-2.72-4.76-7.64-8.11-9.45-13.36c-1.29-11.97,5.74-23.15,4.28-35.11
				c-0.87-14.23,0.74-29.67,9.95-41.19c2.65-4.16,7.02-6.78,10-10.6c-0.71-8.39,0.02-17.22,4.47-24.6
				c7.69-13.92,25.55-20.38,40.62-16.03c4.25-5.55,9.69-10.08,15.91-13.3c5.02-2.9,10.76-4.29,15.69-7.34
				c3.57-3.36,4.94-8.38,6.26-12.96c1.6-7.13,3.07-14.7,1.03-21.89c-2.09-7.31-4.04-14.87-3.4-22.54
				C896.45,283.6,900.47,273.04,909.07,266.98z M837.93,485.84c5.62,4.93,11.2,10.24,14.31,17.19c4.1,7.59,4.62,16.87,10.39,23.57
				c5.29,5.91,11.45,10.99,17.26,16.39c4.45-11.82,2.84-25.26-1.74-36.8c-1.39-4.29-5.37-6.66-8.78-9.19
				c-7.75-5.66-13.63-13.48-18.15-21.85C847.46,479.48,842.62,482.61,837.93,485.84z"/>
		</g>
	</g>
</g>
</svg>
